<?xml version="1.0" encoding="UTF-8"?>
<svg id="Layer_1" data-name="Layer 1" xmlns="http://www.w3.org/2000/svg" version="1.1" viewBox="0 0 68 67.2">
  <defs>
    <style>
      .cls-1 {
        fill: #9a9a9a;
        stroke-width: 0px;
      }
    </style>
  </defs>
  <path class="cls-1" d="M0,25.8c.2-1.1.3-2.3.5-3.4,1-5,3.2-9.5,6.6-13.3C11.1,4.7,16.1,1.8,22,.6c6.9-1.4,13.4-.3,19.5,3.3,6.9,4.1,11.2,10.2,12.9,18.1,1.4,6.7.4,13.1-2.9,19.1-.6,1.2-.7,1.1.3,2.1,4.8,4.8,9.6,9.6,14.4,14.4,1.6,1.6,2.2,3.4,1.7,5.6-1.1,4.1-6.2,5.6-9.4,2.3-2.7-2.8-5.5-5.5-8.2-8.2-2.2-2.2-4.4-4.4-6.6-6.6-.1-.1-.3-.3-.4-.3-1.7.9-3.3,1.9-5,2.6-7.4,3.1-14.8,3-22.1-.3-5.5-2.5-9.7-6.5-12.6-11.7-1.9-3.4-3-7-3.3-10.8C.1,29.8,0,29.6,0,29.4c0-1.2,0-2.4,0-3.6ZM8.9,27.5c0,10.2,8.3,18.6,18.6,18.6,10.2,0,18.5-8.3,18.6-18.6,0-10.4-8.3-18.6-18.5-18.6-10.2,0-18.6,8.3-18.6,18.6Z"/>
</svg>