<?xml version="1.0" encoding="UTF-8"?>
<svg id="Layer_1" data-name="Layer 1" xmlns="http://www.w3.org/2000/svg" viewBox="0 0 24.49 24.49">
  <defs>
    <style>
      .cls-1 {
        fill: #ee4823;
        stroke-width: 0px;
      }
    </style>
  </defs>
  <path class="cls-1" d="M24.43,2.15C24.15.87,23.05,0,21.73,0H3.85C3.48,0,3.1,0,2.72,0,1.21,0,0,1.21,0,2.72,0,9.07,0,15.42,0,21.78c0,1.35.99,2.49,2.32,2.69.04,0,.08.02.12.03h19.61c.18-.04.36-.07.53-.12,1.05-.36,1.67-1.1,1.88-2.19,0-.04.02-.08.03-.13V2.44c-.02-.1-.04-.19-.06-.29M8.71,17.17V7.01l8.93,5.08-8.93,5.08Z"/>
</svg>